,
.   http://www.scenetime.com/signup.php  ---&gt;  Hottest scene tracker on the net !!!  

    Join Now   http://www.scenetime.com/signup.php

    seed back for speed


 



...................................NFO:.................................................








































          
          
              
              
                    
                    
                    
                    

Larry.Crowne.2011.BRRip.XviD.AC3-SiC

Poster:
[img]http://img690.imageshack.us/img690/2346/mv5bmtm1nzayntewn15bml5.jpg[/img]

IMDB Link: 
http://www.imdb.com/title/tt1583420/

Description:
After losing his job, a middle-aged man reinvents himself by going back to college. 

MediaInfo:
General
Complete name                    : Larry.Crown.2011.BRRip.XviD.AC3-SiC.avi
Format                           : AVI
Format/Info                      : Audio Video Interleave
File size                        : 1.37 GiB
Duration                         : 1h 38mn
Overall bit rate                 : 1 991 Kbps

Video
ID                               : 0
Format                           : MPEG-4 Visual
Format profile                   : Advanced Simple@L5
Format settings, BVOP            : Yes
Format settings, QPel            : No
Format settings, GMC             : No warppoints
Format settings, Matrix          : Default (MPEG)
Muxing mode                      : Packed bitstream
Codec ID                         : XVID
Codec ID/Hint                    : XviD
Duration                         : 1h 38mn
Bit rate                         : 1 599 Kbps
Width                            : 720 pixels
Height                           : 304 pixels
Display aspect ratio             : 2.35:1
Frame rate                       : 23.976 fps
Color space                      : YUV
Chroma subsampling               : 4:2:0
Bit depth                        : 8 bits
Scan type                        : Progressive
Bits/(Pixel*Frame)               : 0.305
Stream size                      : 1.10 GiB (80%)
Writing library                  : XviD 64

Audio
ID                               : 1
Format                           : AC-3
Format/Info                      : Audio Coding 3
Mode extension                   : CM (complete main)
Codec ID                         : 2000
Duration                         : 1h 38mn
Bit rate mode                    : Constant
Bit rate                         : 384 Kbps
Channel(s)                       : 6 channels
Channel positions                : Front: L C R, Side: L R, LFE
Sampling rate                    : 48.0 KHz
Bit depth                        : 16 bits
Stream size                      : 271 MiB (19%)
Alignment                        : Aligned on interleaves
Interleave, duration             : 64 ms (1.53 video frames)
Interleave, preload duration     : 192 ms
Title                            : inf-lrrcrwn720p - [2] English


Screenshots:
[img]http://img819.imageshack.us/img819/1130/snap1lb.png[/img]
[img]http://img692.imageshack.us/img692/7114/snap2rd.png[/img]
[img]http://img153.imageshack.us/img153/3082/snap3tj.png[/img]
[img]http://img3.imageshack.us/img3/8903/snap4d.png[/img]
[img]http://img853.imageshack.us/img853/6861/snap5j.png[/img]


Note : did my thing. turned out nice, enjoy. 

Source: 720p iNFAMOUS

Enjoy!

Respects to CaptainHomey, Cyanide, CM8, Rx, THC, ELEKTRI4KA, 
Killerhz, PA, YeFsTe, BoxSlots, MrRep and everyone in the struggle...